<mxfile host="app.diagrams.net" modified="2021-05-04T07:16:16.273Z" agent="5.0 (Windows)" etag="RYB4Nf3VtwCgoXsw__gx" version="14.4.9" type="github">
  <diagram id="C5RBs43oDa-KdzZeNtuy" name="Page-1">
    <mxGraphModel dx="981" dy="546" grid="1" gridSize="10" guides="1" tooltips="1" connect="1" arrows="1" fold="1" page="1" pageScale="1" pageWidth="827" pageHeight="1169" math="0" shadow="0">
      <root>
        <mxCell id="WIyWlLk6GJQsqaUBKTNV-0" />
        <mxCell id="WIyWlLk6GJQsqaUBKTNV-1" parent="WIyWlLk6GJQsqaUBKTNV-0" />
        <mxCell id="zkfFHV4jXpPFQw0GAbJ--17" value="transactions" style="swimlane;fontStyle=0;align=center;verticalAlign=top;childLayout=stackLayout;horizontal=1;startSize=26;horizontalStack=0;resizeParent=1;resizeLast=0;collapsible=1;marginBottom=0;rounded=0;shadow=0;strokeWidth=1;" parent="WIyWlLk6GJQsqaUBKTNV-1" vertex="1">
          <mxGeometry x="570" y="170" width="146" height="880" as="geometry">
            <mxRectangle x="550" y="140" width="160" height="26" as="alternateBounds" />
          </mxGeometry>
        </mxCell>
        <mxCell id="0edMa0YnkRYOg43a_D64-2" value="organisation_id" style="text;align=left;verticalAlign=top;spacingLeft=4;spacingRight=4;overflow=hidden;rotatable=0;points=[[0,0.5],[1,0.5]];portConstraint=eastwest;rounded=0;shadow=0;html=0;" vertex="1" parent="zkfFHV4jXpPFQw0GAbJ--17">
          <mxGeometry y="26" width="146" height="24" as="geometry" />
        </mxCell>
        <mxCell id="zkfFHV4jXpPFQw0GAbJ--20" value="debtor_id" style="text;align=left;verticalAlign=top;spacingLeft=4;spacingRight=4;overflow=hidden;rotatable=0;points=[[0,0.5],[1,0.5]];portConstraint=eastwest;rounded=0;shadow=0;html=0;" parent="zkfFHV4jXpPFQw0GAbJ--17" vertex="1">
          <mxGeometry y="50" width="146" height="20" as="geometry" />
        </mxCell>
        <mxCell id="0edMa0YnkRYOg43a_D64-246" value="booking_id" style="text;align=left;verticalAlign=top;spacingLeft=4;spacingRight=4;overflow=hidden;rotatable=0;points=[[0,0.5],[1,0.5]];portConstraint=eastwest;rounded=0;shadow=0;html=0;" vertex="1" parent="zkfFHV4jXpPFQw0GAbJ--17">
          <mxGeometry y="70" width="146" height="24" as="geometry" />
        </mxCell>
        <mxCell id="zkfFHV4jXpPFQw0GAbJ--22" value="cost_centre" style="text;align=left;verticalAlign=top;spacingLeft=4;spacingRight=4;overflow=hidden;rotatable=0;points=[[0,0.5],[1,0.5]];portConstraint=eastwest;rounded=0;shadow=0;html=0;" parent="zkfFHV4jXpPFQw0GAbJ--17" vertex="1">
          <mxGeometry y="94" width="146" height="18" as="geometry" />
        </mxCell>
        <mxCell id="0edMa0YnkRYOg43a_D64-3" value="employee_number" style="text;align=left;verticalAlign=top;spacingLeft=4;spacingRight=4;overflow=hidden;rotatable=0;points=[[0,0.5],[1,0.5]];portConstraint=eastwest;rounded=0;shadow=0;html=0;" vertex="1" parent="zkfFHV4jXpPFQw0GAbJ--17">
          <mxGeometry y="112" width="146" height="20" as="geometry" />
        </mxCell>
        <mxCell id="0edMa0YnkRYOg43a_D64-4" value="traveller_name" style="text;align=left;verticalAlign=top;spacingLeft=4;spacingRight=4;overflow=hidden;rotatable=0;points=[[0,0.5],[1,0.5]];portConstraint=eastwest;rounded=0;shadow=0;html=0;" vertex="1" parent="zkfFHV4jXpPFQw0GAbJ--17">
          <mxGeometry y="132" width="146" height="18" as="geometry" />
        </mxCell>
        <mxCell id="0edMa0YnkRYOg43a_D64-27" value="costing_type" style="text;align=left;verticalAlign=top;spacingLeft=4;spacingRight=4;overflow=hidden;rotatable=0;points=[[0,0.5],[1,0.5]];portConstraint=eastwest;rounded=0;shadow=0;html=0;" vertex="1" parent="zkfFHV4jXpPFQw0GAbJ--17">
          <mxGeometry y="150" width="146" height="20" as="geometry" />
        </mxCell>
        <mxCell id="0edMa0YnkRYOg43a_D64-26" value="booking_reference" style="text;align=left;verticalAlign=top;spacingLeft=4;spacingRight=4;overflow=hidden;rotatable=0;points=[[0,0.5],[1,0.5]];portConstraint=eastwest;rounded=0;shadow=0;html=0;" vertex="1" parent="zkfFHV4jXpPFQw0GAbJ--17">
          <mxGeometry y="170" width="146" height="20" as="geometry" />
        </mxCell>
        <mxCell id="0edMa0YnkRYOg43a_D64-24" value="invoice_number" style="text;align=left;verticalAlign=top;spacingLeft=4;spacingRight=4;overflow=hidden;rotatable=0;points=[[0,0.5],[1,0.5]];portConstraint=eastwest;rounded=0;shadow=0;html=0;" vertex="1" parent="zkfFHV4jXpPFQw0GAbJ--17">
          <mxGeometry y="190" width="146" height="20" as="geometry" />
        </mxCell>
        <mxCell id="0edMa0YnkRYOg43a_D64-23" value="invoice_date" style="text;align=left;verticalAlign=top;spacingLeft=4;spacingRight=4;overflow=hidden;rotatable=0;points=[[0,0.5],[1,0.5]];portConstraint=eastwest;rounded=0;shadow=0;html=0;" vertex="1" parent="zkfFHV4jXpPFQw0GAbJ--17">
          <mxGeometry y="210" width="146" height="20" as="geometry" />
        </mxCell>
        <mxCell id="0edMa0YnkRYOg43a_D64-20" value="invoice_number" style="text;align=left;verticalAlign=top;spacingLeft=4;spacingRight=4;overflow=hidden;rotatable=0;points=[[0,0.5],[1,0.5]];portConstraint=eastwest;rounded=0;shadow=0;html=0;" vertex="1" parent="zkfFHV4jXpPFQw0GAbJ--17">
          <mxGeometry y="230" width="146" height="20" as="geometry" />
        </mxCell>
        <mxCell id="0edMa0YnkRYOg43a_D64-29" value="supplier_name" style="text;align=left;verticalAlign=top;spacingLeft=4;spacingRight=4;overflow=hidden;rotatable=0;points=[[0,0.5],[1,0.5]];portConstraint=eastwest;rounded=0;shadow=0;html=0;" vertex="1" parent="zkfFHV4jXpPFQw0GAbJ--17">
          <mxGeometry y="250" width="146" height="20" as="geometry" />
        </mxCell>
        <mxCell id="0edMa0YnkRYOg43a_D64-30" value="class_of_travel" style="text;align=left;verticalAlign=top;spacingLeft=4;spacingRight=4;overflow=hidden;rotatable=0;points=[[0,0.5],[1,0.5]];portConstraint=eastwest;rounded=0;shadow=0;html=0;" vertex="1" parent="zkfFHV4jXpPFQw0GAbJ--17">
          <mxGeometry y="270" width="146" height="20" as="geometry" />
        </mxCell>
        <mxCell id="0edMa0YnkRYOg43a_D64-31" value="sector_start_date" style="text;align=left;verticalAlign=top;spacingLeft=4;spacingRight=4;overflow=hidden;rotatable=0;points=[[0,0.5],[1,0.5]];portConstraint=eastwest;rounded=0;shadow=0;html=0;" vertex="1" parent="zkfFHV4jXpPFQw0GAbJ--17">
          <mxGeometry y="290" width="146" height="20" as="geometry" />
        </mxCell>
        <mxCell id="0edMa0YnkRYOg43a_D64-32" value="origin_city" style="text;align=left;verticalAlign=top;spacingLeft=4;spacingRight=4;overflow=hidden;rotatable=0;points=[[0,0.5],[1,0.5]];portConstraint=eastwest;rounded=0;shadow=0;html=0;" vertex="1" parent="zkfFHV4jXpPFQw0GAbJ--17">
          <mxGeometry y="310" width="146" height="20" as="geometry" />
        </mxCell>
        <mxCell id="0edMa0YnkRYOg43a_D64-243" value="origin_country" style="text;align=left;verticalAlign=top;spacingLeft=4;spacingRight=4;overflow=hidden;rotatable=0;points=[[0,0.5],[1,0.5]];portConstraint=eastwest;rounded=0;shadow=0;html=0;" vertex="1" parent="zkfFHV4jXpPFQw0GAbJ--17">
          <mxGeometry y="330" width="146" height="20" as="geometry" />
        </mxCell>
        <mxCell id="0edMa0YnkRYOg43a_D64-33" value="sector_end_date" style="text;align=left;verticalAlign=top;spacingLeft=4;spacingRight=4;overflow=hidden;rotatable=0;points=[[0,0.5],[1,0.5]];portConstraint=eastwest;rounded=0;shadow=0;html=0;" vertex="1" parent="zkfFHV4jXpPFQw0GAbJ--17">
          <mxGeometry y="350" width="146" height="20" as="geometry" />
        </mxCell>
        <mxCell id="0edMa0YnkRYOg43a_D64-34" value="destination_city" style="text;align=left;verticalAlign=top;spacingLeft=4;spacingRight=4;overflow=hidden;rotatable=0;points=[[0,0.5],[1,0.5]];portConstraint=eastwest;rounded=0;shadow=0;html=0;" vertex="1" parent="zkfFHV4jXpPFQw0GAbJ--17">
          <mxGeometry y="370" width="146" height="20" as="geometry" />
        </mxCell>
        <mxCell id="0edMa0YnkRYOg43a_D64-36" value="destination_country" style="text;align=left;verticalAlign=top;spacingLeft=4;spacingRight=4;overflow=hidden;rotatable=0;points=[[0,0.5],[1,0.5]];portConstraint=eastwest;rounded=0;shadow=0;html=0;" vertex="1" parent="zkfFHV4jXpPFQw0GAbJ--17">
          <mxGeometry y="390" width="146" height="20" as="geometry" />
        </mxCell>
        <mxCell id="0edMa0YnkRYOg43a_D64-37" value="policy_description" style="text;align=left;verticalAlign=top;spacingLeft=4;spacingRight=4;overflow=hidden;rotatable=0;points=[[0,0.5],[1,0.5]];portConstraint=eastwest;rounded=0;shadow=0;html=0;" vertex="1" parent="zkfFHV4jXpPFQw0GAbJ--17">
          <mxGeometry y="410" width="146" height="20" as="geometry" />
        </mxCell>
        <mxCell id="0edMa0YnkRYOg43a_D64-38" value="ticket_issue" style="text;align=left;verticalAlign=top;spacingLeft=4;spacingRight=4;overflow=hidden;rotatable=0;points=[[0,0.5],[1,0.5]];portConstraint=eastwest;rounded=0;shadow=0;html=0;" vertex="1" parent="zkfFHV4jXpPFQw0GAbJ--17">
          <mxGeometry y="430" width="146" height="20" as="geometry" />
        </mxCell>
        <mxCell id="0edMa0YnkRYOg43a_D64-39" value="ticket_number" style="text;align=left;verticalAlign=top;spacingLeft=4;spacingRight=4;overflow=hidden;rotatable=0;points=[[0,0.5],[1,0.5]];portConstraint=eastwest;rounded=0;shadow=0;html=0;" vertex="1" parent="zkfFHV4jXpPFQw0GAbJ--17">
          <mxGeometry y="450" width="146" height="20" as="geometry" />
        </mxCell>
        <mxCell id="0edMa0YnkRYOg43a_D64-40" value="original_ticket_number" style="text;align=left;verticalAlign=top;spacingLeft=4;spacingRight=4;overflow=hidden;rotatable=0;points=[[0,0.5],[1,0.5]];portConstraint=eastwest;rounded=0;shadow=0;html=0;" vertex="1" parent="zkfFHV4jXpPFQw0GAbJ--17">
          <mxGeometry y="470" width="146" height="20" as="geometry" />
        </mxCell>
        <mxCell id="0edMa0YnkRYOg43a_D64-42" value="ticket_status" style="text;align=left;verticalAlign=top;spacingLeft=4;spacingRight=4;overflow=hidden;rotatable=0;points=[[0,0.5],[1,0.5]];portConstraint=eastwest;rounded=0;shadow=0;html=0;" vertex="1" parent="zkfFHV4jXpPFQw0GAbJ--17">
          <mxGeometry y="490" width="146" height="20" as="geometry" />
        </mxCell>
        <mxCell id="0edMa0YnkRYOg43a_D64-43" value="room_nights" style="text;align=left;verticalAlign=top;spacingLeft=4;spacingRight=4;overflow=hidden;rotatable=0;points=[[0,0.5],[1,0.5]];portConstraint=eastwest;rounded=0;shadow=0;html=0;" vertex="1" parent="zkfFHV4jXpPFQw0GAbJ--17">
          <mxGeometry y="510" width="146" height="20" as="geometry" />
        </mxCell>
        <mxCell id="0edMa0YnkRYOg43a_D64-44" value="number_of_rooms" style="text;align=left;verticalAlign=top;spacingLeft=4;spacingRight=4;overflow=hidden;rotatable=0;points=[[0,0.5],[1,0.5]];portConstraint=eastwest;rounded=0;shadow=0;html=0;" vertex="1" parent="zkfFHV4jXpPFQw0GAbJ--17">
          <mxGeometry y="530" width="146" height="20" as="geometry" />
        </mxCell>
        <mxCell id="0edMa0YnkRYOg43a_D64-45" value="room_or_car_type" style="text;align=left;verticalAlign=top;spacingLeft=4;spacingRight=4;overflow=hidden;rotatable=0;points=[[0,0.5],[1,0.5]];portConstraint=eastwest;rounded=0;shadow=0;html=0;" vertex="1" parent="zkfFHV4jXpPFQw0GAbJ--17">
          <mxGeometry y="550" width="146" height="20" as="geometry" />
        </mxCell>
        <mxCell id="0edMa0YnkRYOg43a_D64-46" value="days_hire" style="text;align=left;verticalAlign=top;spacingLeft=4;spacingRight=4;overflow=hidden;rotatable=0;points=[[0,0.5],[1,0.5]];portConstraint=eastwest;rounded=0;shadow=0;html=0;" vertex="1" parent="zkfFHV4jXpPFQw0GAbJ--17">
          <mxGeometry y="570" width="146" height="20" as="geometry" />
        </mxCell>
        <mxCell id="0edMa0YnkRYOg43a_D64-47" value="departure_date" style="text;align=left;verticalAlign=top;spacingLeft=4;spacingRight=4;overflow=hidden;rotatable=0;points=[[0,0.5],[1,0.5]];portConstraint=eastwest;rounded=0;shadow=0;html=0;" vertex="1" parent="zkfFHV4jXpPFQw0GAbJ--17">
          <mxGeometry y="590" width="146" height="20" as="geometry" />
        </mxCell>
        <mxCell id="0edMa0YnkRYOg43a_D64-48" value="arrival_date" style="text;align=left;verticalAlign=top;spacingLeft=4;spacingRight=4;overflow=hidden;rotatable=0;points=[[0,0.5],[1,0.5]];portConstraint=eastwest;rounded=0;shadow=0;html=0;" vertex="1" parent="zkfFHV4jXpPFQw0GAbJ--17">
          <mxGeometry y="610" width="146" height="20" as="geometry" />
        </mxCell>
        <mxCell id="0edMa0YnkRYOg43a_D64-49" value="service_fee_description" style="text;align=left;verticalAlign=top;spacingLeft=4;spacingRight=4;overflow=hidden;rotatable=0;points=[[0,0.5],[1,0.5]];portConstraint=eastwest;rounded=0;shadow=0;html=0;" vertex="1" parent="zkfFHV4jXpPFQw0GAbJ--17">
          <mxGeometry y="630" width="146" height="20" as="geometry" />
        </mxCell>
        <mxCell id="0edMa0YnkRYOg43a_D64-50" value="reference" style="text;align=left;verticalAlign=top;spacingLeft=4;spacingRight=4;overflow=hidden;rotatable=0;points=[[0,0.5],[1,0.5]];portConstraint=eastwest;rounded=0;shadow=0;html=0;" vertex="1" parent="zkfFHV4jXpPFQw0GAbJ--17">
          <mxGeometry y="650" width="146" height="20" as="geometry" />
        </mxCell>
        <mxCell id="0edMa0YnkRYOg43a_D64-51" value="misc_spend" style="text;align=left;verticalAlign=top;spacingLeft=4;spacingRight=4;overflow=hidden;rotatable=0;points=[[0,0.5],[1,0.5]];portConstraint=eastwest;rounded=0;shadow=0;html=0;" vertex="1" parent="zkfFHV4jXpPFQw0GAbJ--17">
          <mxGeometry y="670" width="146" height="20" as="geometry" />
        </mxCell>
        <mxCell id="0edMa0YnkRYOg43a_D64-52" value="published_fare" style="text;align=left;verticalAlign=top;spacingLeft=4;spacingRight=4;overflow=hidden;rotatable=0;points=[[0,0.5],[1,0.5]];portConstraint=eastwest;rounded=0;shadow=0;html=0;" vertex="1" parent="zkfFHV4jXpPFQw0GAbJ--17">
          <mxGeometry y="690" width="146" height="20" as="geometry" />
        </mxCell>
        <mxCell id="0edMa0YnkRYOg43a_D64-53" value="lost_savings" style="text;align=left;verticalAlign=top;spacingLeft=4;spacingRight=4;overflow=hidden;rotatable=0;points=[[0,0.5],[1,0.5]];portConstraint=eastwest;rounded=0;shadow=0;html=0;" vertex="1" parent="zkfFHV4jXpPFQw0GAbJ--17">
          <mxGeometry y="710" width="146" height="20" as="geometry" />
        </mxCell>
        <mxCell id="0edMa0YnkRYOg43a_D64-54" value="base_fare" style="text;align=left;verticalAlign=top;spacingLeft=4;spacingRight=4;overflow=hidden;rotatable=0;points=[[0,0.5],[1,0.5]];portConstraint=eastwest;rounded=0;shadow=0;html=0;" vertex="1" parent="zkfFHV4jXpPFQw0GAbJ--17">
          <mxGeometry y="730" width="146" height="20" as="geometry" />
        </mxCell>
        <mxCell id="0edMa0YnkRYOg43a_D64-55" value="taxes" style="text;align=left;verticalAlign=top;spacingLeft=4;spacingRight=4;overflow=hidden;rotatable=0;points=[[0,0.5],[1,0.5]];portConstraint=eastwest;rounded=0;shadow=0;html=0;" vertex="1" parent="zkfFHV4jXpPFQw0GAbJ--17">
          <mxGeometry y="750" width="146" height="20" as="geometry" />
        </mxCell>
        <mxCell id="0edMa0YnkRYOg43a_D64-56" value="gst" style="text;align=left;verticalAlign=top;spacingLeft=4;spacingRight=4;overflow=hidden;rotatable=0;points=[[0,0.5],[1,0.5]];portConstraint=eastwest;rounded=0;shadow=0;html=0;" vertex="1" parent="zkfFHV4jXpPFQw0GAbJ--17">
          <mxGeometry y="770" width="146" height="20" as="geometry" />
        </mxCell>
        <mxCell id="0edMa0YnkRYOg43a_D64-57" value="total_travel_spend" style="text;align=left;verticalAlign=top;spacingLeft=4;spacingRight=4;overflow=hidden;rotatable=0;points=[[0,0.5],[1,0.5]];portConstraint=eastwest;rounded=0;shadow=0;html=0;" vertex="1" parent="zkfFHV4jXpPFQw0GAbJ--17">
          <mxGeometry y="790" width="146" height="20" as="geometry" />
        </mxCell>
        <mxCell id="0edMa0YnkRYOg43a_D64-58" value="currency" style="text;align=left;verticalAlign=top;spacingLeft=4;spacingRight=4;overflow=hidden;rotatable=0;points=[[0,0.5],[1,0.5]];portConstraint=eastwest;rounded=0;shadow=0;html=0;" vertex="1" parent="zkfFHV4jXpPFQw0GAbJ--17">
          <mxGeometry y="810" width="146" height="20" as="geometry" />
        </mxCell>
        <mxCell id="0edMa0YnkRYOg43a_D64-61" value="bookings" style="swimlane;fontStyle=0;align=center;verticalAlign=top;childLayout=stackLayout;horizontal=1;startSize=26;horizontalStack=0;resizeParent=1;resizeLast=0;collapsible=1;marginBottom=0;rounded=0;shadow=0;strokeWidth=1;" vertex="1" parent="WIyWlLk6GJQsqaUBKTNV-1">
          <mxGeometry x="210" y="200" width="146" height="670" as="geometry">
            <mxRectangle x="550" y="140" width="160" height="26" as="alternateBounds" />
          </mxGeometry>
        </mxCell>
        <mxCell id="0edMa0YnkRYOg43a_D64-244" value="organisation_id" style="text;align=left;verticalAlign=top;spacingLeft=4;spacingRight=4;overflow=hidden;rotatable=0;points=[[0,0.5],[1,0.5]];portConstraint=eastwest;rounded=0;shadow=0;html=0;" vertex="1" parent="0edMa0YnkRYOg43a_D64-61">
          <mxGeometry y="26" width="146" height="24" as="geometry" />
        </mxCell>
        <mxCell id="0edMa0YnkRYOg43a_D64-245" value="debtor_id" style="text;align=left;verticalAlign=top;spacingLeft=4;spacingRight=4;overflow=hidden;rotatable=0;points=[[0,0.5],[1,0.5]];portConstraint=eastwest;rounded=0;shadow=0;html=0;" vertex="1" parent="0edMa0YnkRYOg43a_D64-61">
          <mxGeometry y="50" width="146" height="20" as="geometry" />
        </mxCell>
        <mxCell id="0edMa0YnkRYOg43a_D64-62" value="booking_id" style="text;align=left;verticalAlign=top;spacingLeft=4;spacingRight=4;overflow=hidden;rotatable=0;points=[[0,0.5],[1,0.5]];portConstraint=eastwest;rounded=0;shadow=0;html=0;" vertex="1" parent="0edMa0YnkRYOg43a_D64-61">
          <mxGeometry y="70" width="146" height="24" as="geometry" />
        </mxCell>
        <mxCell id="0edMa0YnkRYOg43a_D64-64" value="division" style="text;align=left;verticalAlign=top;spacingLeft=4;spacingRight=4;overflow=hidden;rotatable=0;points=[[0,0.5],[1,0.5]];portConstraint=eastwest;rounded=0;shadow=0;html=0;" vertex="1" parent="0edMa0YnkRYOg43a_D64-61">
          <mxGeometry y="94" width="146" height="24" as="geometry" />
        </mxCell>
        <mxCell id="0edMa0YnkRYOg43a_D64-65" value="cost_centre" style="text;align=left;verticalAlign=top;spacingLeft=4;spacingRight=4;overflow=hidden;rotatable=0;points=[[0,0.5],[1,0.5]];portConstraint=eastwest;rounded=0;shadow=0;html=0;" vertex="1" parent="0edMa0YnkRYOg43a_D64-61">
          <mxGeometry y="118" width="146" height="18" as="geometry" />
        </mxCell>
        <mxCell id="0edMa0YnkRYOg43a_D64-66" value="employee_number" style="text;align=left;verticalAlign=top;spacingLeft=4;spacingRight=4;overflow=hidden;rotatable=0;points=[[0,0.5],[1,0.5]];portConstraint=eastwest;rounded=0;shadow=0;html=0;" vertex="1" parent="0edMa0YnkRYOg43a_D64-61">
          <mxGeometry y="136" width="146" height="20" as="geometry" />
        </mxCell>
        <mxCell id="0edMa0YnkRYOg43a_D64-67" value="traveller_name" style="text;align=left;verticalAlign=top;spacingLeft=4;spacingRight=4;overflow=hidden;rotatable=0;points=[[0,0.5],[1,0.5]];portConstraint=eastwest;rounded=0;shadow=0;html=0;" vertex="1" parent="0edMa0YnkRYOg43a_D64-61">
          <mxGeometry y="156" width="146" height="18" as="geometry" />
        </mxCell>
        <mxCell id="0edMa0YnkRYOg43a_D64-68" value="travel_booker" style="text;align=left;verticalAlign=top;spacingLeft=4;spacingRight=4;overflow=hidden;rotatable=0;points=[[0,0.5],[1,0.5]];portConstraint=eastwest;rounded=0;shadow=0;html=0;" vertex="1" parent="0edMa0YnkRYOg43a_D64-61">
          <mxGeometry y="174" width="146" height="20" as="geometry" />
        </mxCell>
        <mxCell id="0edMa0YnkRYOg43a_D64-69" value="booking_type" style="text;align=left;verticalAlign=top;spacingLeft=4;spacingRight=4;overflow=hidden;rotatable=0;points=[[0,0.5],[1,0.5]];portConstraint=eastwest;rounded=0;shadow=0;html=0;" vertex="1" parent="0edMa0YnkRYOg43a_D64-61">
          <mxGeometry y="194" width="146" height="20" as="geometry" />
        </mxCell>
        <mxCell id="0edMa0YnkRYOg43a_D64-70" value="booking_reference" style="text;align=left;verticalAlign=top;spacingLeft=4;spacingRight=4;overflow=hidden;rotatable=0;points=[[0,0.5],[1,0.5]];portConstraint=eastwest;rounded=0;shadow=0;html=0;" vertex="1" parent="0edMa0YnkRYOg43a_D64-61">
          <mxGeometry y="214" width="146" height="20" as="geometry" />
        </mxCell>
        <mxCell id="0edMa0YnkRYOg43a_D64-71" value="original_booking_date" style="text;align=left;verticalAlign=top;spacingLeft=4;spacingRight=4;overflow=hidden;rotatable=0;points=[[0,0.5],[1,0.5]];portConstraint=eastwest;rounded=0;shadow=0;html=0;" vertex="1" parent="0edMa0YnkRYOg43a_D64-61">
          <mxGeometry y="234" width="146" height="20" as="geometry" />
        </mxCell>
        <mxCell id="0edMa0YnkRYOg43a_D64-74" value="booking_source" style="text;align=left;verticalAlign=top;spacingLeft=4;spacingRight=4;overflow=hidden;rotatable=0;points=[[0,0.5],[1,0.5]];portConstraint=eastwest;rounded=0;shadow=0;html=0;" vertex="1" parent="0edMa0YnkRYOg43a_D64-61">
          <mxGeometry y="254" width="146" height="20" as="geometry" />
        </mxCell>
        <mxCell id="0edMa0YnkRYOg43a_D64-75" value="duration" style="text;align=left;verticalAlign=top;spacingLeft=4;spacingRight=4;overflow=hidden;rotatable=0;points=[[0,0.5],[1,0.5]];portConstraint=eastwest;rounded=0;shadow=0;html=0;" vertex="1" parent="0edMa0YnkRYOg43a_D64-61">
          <mxGeometry y="274" width="146" height="20" as="geometry" />
        </mxCell>
        <mxCell id="0edMa0YnkRYOg43a_D64-76" value="number_of_travellers" style="text;align=left;verticalAlign=top;spacingLeft=4;spacingRight=4;overflow=hidden;rotatable=0;points=[[0,0.5],[1,0.5]];portConstraint=eastwest;rounded=0;shadow=0;html=0;" vertex="1" parent="0edMa0YnkRYOg43a_D64-61">
          <mxGeometry y="294" width="146" height="20" as="geometry" />
        </mxCell>
        <mxCell id="0edMa0YnkRYOg43a_D64-77" value="booking_type" style="text;align=left;verticalAlign=top;spacingLeft=4;spacingRight=4;overflow=hidden;rotatable=0;points=[[0,0.5],[1,0.5]];portConstraint=eastwest;rounded=0;shadow=0;html=0;" vertex="1" parent="0edMa0YnkRYOg43a_D64-61">
          <mxGeometry y="314" width="146" height="20" as="geometry" />
        </mxCell>
        <mxCell id="0edMa0YnkRYOg43a_D64-79" value="original_booking_date" style="text;align=left;verticalAlign=top;spacingLeft=4;spacingRight=4;overflow=hidden;rotatable=0;points=[[0,0.5],[1,0.5]];portConstraint=eastwest;rounded=0;shadow=0;html=0;" vertex="1" parent="0edMa0YnkRYOg43a_D64-61">
          <mxGeometry y="334" width="146" height="20" as="geometry" />
        </mxCell>
        <mxCell id="0edMa0YnkRYOg43a_D64-83" value="booking_method" style="text;align=left;verticalAlign=top;spacingLeft=4;spacingRight=4;overflow=hidden;rotatable=0;points=[[0,0.5],[1,0.5]];portConstraint=eastwest;rounded=0;shadow=0;html=0;" vertex="1" parent="0edMa0YnkRYOg43a_D64-61">
          <mxGeometry y="354" width="146" height="20" as="geometry" />
        </mxCell>
        <mxCell id="0edMa0YnkRYOg43a_D64-85" value="booking_date" style="text;align=left;verticalAlign=top;spacingLeft=4;spacingRight=4;overflow=hidden;rotatable=0;points=[[0,0.5],[1,0.5]];portConstraint=eastwest;rounded=0;shadow=0;html=0;" vertex="1" parent="0edMa0YnkRYOg43a_D64-61">
          <mxGeometry y="374" width="146" height="20" as="geometry" />
        </mxCell>
        <mxCell id="0edMa0YnkRYOg43a_D64-88" value="consultant" style="text;align=left;verticalAlign=top;spacingLeft=4;spacingRight=4;overflow=hidden;rotatable=0;points=[[0,0.5],[1,0.5]];portConstraint=eastwest;rounded=0;shadow=0;html=0;" vertex="1" parent="0edMa0YnkRYOg43a_D64-61">
          <mxGeometry y="394" width="146" height="20" as="geometry" />
        </mxCell>
        <mxCell id="0edMa0YnkRYOg43a_D64-90" value="class_of_travel" style="text;align=left;verticalAlign=top;spacingLeft=4;spacingRight=4;overflow=hidden;rotatable=0;points=[[0,0.5],[1,0.5]];portConstraint=eastwest;rounded=0;shadow=0;html=0;" vertex="1" parent="0edMa0YnkRYOg43a_D64-61">
          <mxGeometry y="414" width="146" height="20" as="geometry" />
        </mxCell>
        <mxCell id="0edMa0YnkRYOg43a_D64-92" value="original_city" style="text;align=left;verticalAlign=top;spacingLeft=4;spacingRight=4;overflow=hidden;rotatable=0;points=[[0,0.5],[1,0.5]];portConstraint=eastwest;rounded=0;shadow=0;html=0;" vertex="1" parent="0edMa0YnkRYOg43a_D64-61">
          <mxGeometry y="434" width="146" height="20" as="geometry" />
        </mxCell>
        <mxCell id="0edMa0YnkRYOg43a_D64-94" value="destination_city" style="text;align=left;verticalAlign=top;spacingLeft=4;spacingRight=4;overflow=hidden;rotatable=0;points=[[0,0.5],[1,0.5]];portConstraint=eastwest;rounded=0;shadow=0;html=0;" vertex="1" parent="0edMa0YnkRYOg43a_D64-61">
          <mxGeometry y="454" width="146" height="20" as="geometry" />
        </mxCell>
        <mxCell id="0edMa0YnkRYOg43a_D64-95" value="destination_country" style="text;align=left;verticalAlign=top;spacingLeft=4;spacingRight=4;overflow=hidden;rotatable=0;points=[[0,0.5],[1,0.5]];portConstraint=eastwest;rounded=0;shadow=0;html=0;" vertex="1" parent="0edMa0YnkRYOg43a_D64-61">
          <mxGeometry y="474" width="146" height="20" as="geometry" />
        </mxCell>
        <mxCell id="0edMa0YnkRYOg43a_D64-96" value="policy_description" style="text;align=left;verticalAlign=top;spacingLeft=4;spacingRight=4;overflow=hidden;rotatable=0;points=[[0,0.5],[1,0.5]];portConstraint=eastwest;rounded=0;shadow=0;html=0;" vertex="1" parent="0edMa0YnkRYOg43a_D64-61">
          <mxGeometry y="494" width="146" height="20" as="geometry" />
        </mxCell>
        <mxCell id="0edMa0YnkRYOg43a_D64-100" value="itinerary_summary" style="text;align=left;verticalAlign=top;spacingLeft=4;spacingRight=4;overflow=hidden;rotatable=0;points=[[0,0.5],[1,0.5]];portConstraint=eastwest;rounded=0;shadow=0;html=0;" vertex="1" parent="0edMa0YnkRYOg43a_D64-61">
          <mxGeometry y="514" width="146" height="20" as="geometry" />
        </mxCell>
        <mxCell id="0edMa0YnkRYOg43a_D64-106" value="departure_date" style="text;align=left;verticalAlign=top;spacingLeft=4;spacingRight=4;overflow=hidden;rotatable=0;points=[[0,0.5],[1,0.5]];portConstraint=eastwest;rounded=0;shadow=0;html=0;" vertex="1" parent="0edMa0YnkRYOg43a_D64-61">
          <mxGeometry y="534" width="146" height="20" as="geometry" />
        </mxCell>
        <mxCell id="0edMa0YnkRYOg43a_D64-107" value="arrival_date" style="text;align=left;verticalAlign=top;spacingLeft=4;spacingRight=4;overflow=hidden;rotatable=0;points=[[0,0.5],[1,0.5]];portConstraint=eastwest;rounded=0;shadow=0;html=0;" vertex="1" parent="0edMa0YnkRYOg43a_D64-61">
          <mxGeometry y="554" width="146" height="20" as="geometry" />
        </mxCell>
        <mxCell id="0edMa0YnkRYOg43a_D64-118" value="order_number" style="text;align=left;verticalAlign=top;spacingLeft=4;spacingRight=4;overflow=hidden;rotatable=0;points=[[0,0.5],[1,0.5]];portConstraint=eastwest;rounded=0;shadow=0;html=0;" vertex="1" parent="0edMa0YnkRYOg43a_D64-61">
          <mxGeometry y="574" width="146" height="20" as="geometry" />
        </mxCell>
        <mxCell id="0edMa0YnkRYOg43a_D64-119" value="reason_for_travel_description" style="text;align=left;verticalAlign=top;spacingLeft=4;spacingRight=4;overflow=hidden;rotatable=0;points=[[0,0.5],[1,0.5]];portConstraint=eastwest;rounded=0;shadow=0;html=0;" vertex="1" parent="0edMa0YnkRYOg43a_D64-61">
          <mxGeometry y="594" width="146" height="20" as="geometry" />
        </mxCell>
        <mxCell id="0edMa0YnkRYOg43a_D64-180" value="debtor" style="swimlane;fontStyle=0;align=center;verticalAlign=top;childLayout=stackLayout;horizontal=1;startSize=26;horizontalStack=0;resizeParent=1;resizeLast=0;collapsible=1;marginBottom=0;rounded=0;shadow=0;strokeWidth=1;" vertex="1" parent="WIyWlLk6GJQsqaUBKTNV-1">
          <mxGeometry x="140" y="30" width="146" height="130" as="geometry">
            <mxRectangle x="550" y="140" width="160" height="26" as="alternateBounds" />
          </mxGeometry>
        </mxCell>
        <mxCell id="0edMa0YnkRYOg43a_D64-181" value="organisation_id" style="text;align=left;verticalAlign=top;spacingLeft=4;spacingRight=4;overflow=hidden;rotatable=0;points=[[0,0.5],[1,0.5]];portConstraint=eastwest;rounded=0;shadow=0;html=0;" vertex="1" parent="0edMa0YnkRYOg43a_D64-180">
          <mxGeometry y="26" width="146" height="24" as="geometry" />
        </mxCell>
        <mxCell id="0edMa0YnkRYOg43a_D64-182" value="debtor_id" style="text;align=left;verticalAlign=top;spacingLeft=4;spacingRight=4;overflow=hidden;rotatable=0;points=[[0,0.5],[1,0.5]];portConstraint=eastwest;rounded=0;shadow=0;html=0;" vertex="1" parent="0edMa0YnkRYOg43a_D64-180">
          <mxGeometry y="50" width="146" height="20" as="geometry" />
        </mxCell>
        <mxCell id="0edMa0YnkRYOg43a_D64-183" value="debtor_name" style="text;align=left;verticalAlign=top;spacingLeft=4;spacingRight=4;overflow=hidden;rotatable=0;points=[[0,0.5],[1,0.5]];portConstraint=eastwest;rounded=0;shadow=0;html=0;" vertex="1" parent="0edMa0YnkRYOg43a_D64-180">
          <mxGeometry y="70" width="146" height="24" as="geometry" />
        </mxCell>
        <mxCell id="0edMa0YnkRYOg43a_D64-239" value="entity" style="swimlane;fontStyle=0;align=center;verticalAlign=top;childLayout=stackLayout;horizontal=1;startSize=26;horizontalStack=0;resizeParent=1;resizeLast=0;collapsible=1;marginBottom=0;rounded=0;shadow=0;strokeWidth=1;" vertex="1" parent="WIyWlLk6GJQsqaUBKTNV-1">
          <mxGeometry x="400" y="10" width="146" height="134" as="geometry">
            <mxRectangle x="550" y="140" width="160" height="26" as="alternateBounds" />
          </mxGeometry>
        </mxCell>
        <mxCell id="0edMa0YnkRYOg43a_D64-121" value="organisation_id" style="text;align=left;verticalAlign=top;spacingLeft=4;spacingRight=4;overflow=hidden;rotatable=0;points=[[0,0.5],[1,0.5]];portConstraint=eastwest;rounded=0;shadow=0;html=0;" vertex="1" parent="0edMa0YnkRYOg43a_D64-239">
          <mxGeometry y="26" width="146" height="24" as="geometry" />
        </mxCell>
        <mxCell id="0edMa0YnkRYOg43a_D64-122" value="organisation_name" style="text;align=left;verticalAlign=top;spacingLeft=4;spacingRight=4;overflow=hidden;rotatable=0;points=[[0,0.5],[1,0.5]];portConstraint=eastwest;rounded=0;shadow=0;html=0;" vertex="1" parent="0edMa0YnkRYOg43a_D64-239">
          <mxGeometry y="50" width="146" height="20" as="geometry" />
        </mxCell>
        <mxCell id="0edMa0YnkRYOg43a_D64-123" value="division" style="text;align=left;verticalAlign=top;spacingLeft=4;spacingRight=4;overflow=hidden;rotatable=0;points=[[0,0.5],[1,0.5]];portConstraint=eastwest;rounded=0;shadow=0;html=0;" vertex="1" parent="0edMa0YnkRYOg43a_D64-239">
          <mxGeometry y="70" width="146" height="24" as="geometry" />
        </mxCell>
        <mxCell id="0edMa0YnkRYOg43a_D64-146" value="debtor_name" style="text;align=left;verticalAlign=top;spacingLeft=4;spacingRight=4;overflow=hidden;rotatable=0;points=[[0,0.5],[1,0.5]];portConstraint=eastwest;rounded=0;shadow=0;html=0;" vertex="1" parent="0edMa0YnkRYOg43a_D64-239">
          <mxGeometry y="94" width="146" height="20" as="geometry" />
        </mxCell>
        <mxCell id="0edMa0YnkRYOg43a_D64-145" value="debtor_id" style="text;align=left;verticalAlign=top;spacingLeft=4;spacingRight=4;overflow=hidden;rotatable=0;points=[[0,0.5],[1,0.5]];portConstraint=eastwest;rounded=0;shadow=0;html=0;" vertex="1" parent="0edMa0YnkRYOg43a_D64-239">
          <mxGeometry y="114" width="146" height="20" as="geometry" />
        </mxCell>
      </root>
    </mxGraphModel>
  </diagram>
</mxfile>
